<svg width="20" height="20" viewBox="0 0 20 20" fill="none" xmlns="http://www.w3.org/2000/svg">
<g id="ticket-01">
<path id="Icon" d="M8.33334 6.66666V5.83333M8.33334 10.4167V9.58333M8.33334 14.1667V13.3333M4.33334 3.33333H15.6667C16.6001 3.33333 17.0668 3.33333 17.4233 3.51498C17.7369 3.67477 17.9919 3.92974 18.1517 4.24334C18.3333 4.59986 18.3333 5.06657 18.3333 5.99999V7.08333C16.7225 7.08333 15.4167 8.38916 15.4167 9.99999C15.4167 11.6108 16.7225 12.9167 18.3333 12.9167V14C18.3333 14.9334 18.3333 15.4001 18.1517 15.7566C17.9919 16.0702 17.7369 16.3252 17.4233 16.485C17.0668 16.6667 16.6001 16.6667 15.6667 16.6667H4.33334C3.39992 16.6667 2.93321 16.6667 2.57669 16.485C2.26308 16.3252 2.00812 16.0702 1.84833 15.7566C1.66667 15.4001 1.66667 14.9334 1.66667 14V12.9167C3.2775 12.9167 4.58334 11.6108 4.58334 9.99999C4.58334 8.38916 3.2775 7.08333 1.66667 7.08333V5.99999C1.66667 5.06657 1.66667 4.59986 1.84833 4.24334C2.00812 3.92974 2.26308 3.67477 2.57669 3.51498C2.93321 3.33333 3.39992 3.33333 4.33334 3.33333Z" stroke="#667085" stroke-width="1.8" stroke-linecap="round" stroke-linejoin="round"/>
</g>
</svg>
